<?xml version="1.0" encoding="utf-8"?>
<!-- Generator: Adobe Illustrator 22.0.0, SVG Export Plug-In . SVG Version: 6.00 Build 0)  -->
<svg version="1.1" id="Layer_1" xmlns="http://www.w3.org/2000/svg" xmlns:xlink="http://www.w3.org/1999/xlink" x="0px" y="0px"
	 viewBox="0 0 500 500" style="enable-background:new 0 0 500 500;" xml:space="preserve">
<style type="text/css">
	.st0{fill:none;stroke:#000000;stroke-width:9;stroke-miterlimit:10;}
</style>
<g>
	<g>
		<path d="M33.7,29.4h52.4l40.2,140.1h0.6l41.6-140.1h51.8l-68.2,196.4H99.7L33.7,29.4z"/>
	</g>
	<g>
		<path d="M457.4,432.5v38.1H288.1v-36.7l109.8-121.6H296.6v-38.1H458v38.3l-108.4,120H457.4z"/>
	</g>
	<g>
		<path class="st0" d="M21.3,6.6h457.4c8.8,0,15.9,7.1,15.9,15.9v455c0,8.8-7.1,15.9-15.9,15.9H5.4V22.5C5.4,13.7,12.5,6.6,21.3,6.6
			z"/>
		<path class="st0" d="M5.4,493.4L489.7,11.5L5.4,493.4z"/>
	</g>
</g>
</svg>
